PathFileType	4	(X/Y/Z)	D:\TRACE\v60_Jaco2_6-2-23\v60_baseline_3-v60.trc
DataRate	CameraRate	NumFrames	NumMarkers	Units	OrigDataRate	OrigDataStartFrame	OrigNumFrames
100.00	100.00	      20	9	mm	100.00	4876	      6500
Frame#	Time	front left toe			Front right toe			aft left toe			aft right toe			Arm			FL body			FR body			AL Body			AR Body			
		X1	Y1	Z1	X2	Y2	Z2	X3	Y3	Z3	X4	Y4	Z4	X5	Y5	Z5	X6	Y6	Z6	X7	Y7	Z7	X8	Y8	Z8	X9	Y9	Z9	

4876	48.750	-158.49347	143.00934	-217.84169	222.54797	16.82230	-222.78368	-152.24591	13.64197	406.55591	220.14612	143.23224	402.73288	-88.63765	1208.79529	-342.31161	-53.64905	577.93512	-349.87363	106.74672	580.30353	-352.47394	-39.29838	555.87952	596.07843	117.08404	551.84528	593.98505	
4877	48.760	-159.75653	144.32607	-217.72542	222.62636	16.90156	-222.68523	-152.42598	13.77040	406.52802	220.32552	144.08278	402.84720	-88.43637	1208.68823	-342.52490	-53.57543	577.52155	-349.98862	106.92587	579.96844	-352.41602	-39.98130	555.84735	595.95459	116.87289	552.03717	594.05096	
4878	48.770	-160.28185	141.77237	-217.53069	222.66068	16.88546	-222.64122	-152.37305	13.62194	406.56952	220.22717	141.28918	403.32782	-88.05367	1208.56067	-342.82742	-53.42611	577.07910	-350.08936	107.24492	579.66602	-352.31955	-40.39378	555.80658	595.70172	116.36176	552.23529	593.99310	
4879	48.780	-160.18445	137.92221	-217.73639	222.69965	16.75536	-222.72278	-152.32698	13.39724	406.51883	219.73233	137.17332	403.82861	-87.21081	1208.61316	-342.79324	-53.26317	576.85199	-350.25446	106.89871	579.33508	-352.07483	-40.64447	555.71436	595.61835	116.06281	552.18695	593.91827	
4880	48.790	-159.54359	133.09567	-217.98703	222.71060	16.68618	-222.73822	-152.26187	13.25248	406.43484	219.58357	132.35046	404.09143	-86.90294	1208.63647	-343.22980	-53.12421	576.87024	-350.58087	107.05787	579.34833	-352.18088	-40.74121	555.85236	595.38721	116.01849	552.14539	593.73035	
4881	48.800	-158.88927	127.58279	-218.49594	222.71408	16.65014	-222.71172	-152.33119	13.33765	406.32422	219.21629	127.16162	404.16351	-87.06603	1208.50940	-344.00491	-52.98356	577.10175	-350.93341	107.24425	579.40527	-352.48782	-41.36971	556.03345	594.71960	116.05405	552.28259	593.44647	
4882	48.810	-159.10100	122.05141	-219.28987	222.70131	16.60499	-222.74203	-152.41550	13.51764	406.14725	218.92126	122.46894	403.35141	-86.38404	1208.63062	-343.86731	-52.54996	577.19727	-351.34448	107.39941	579.42719	-352.73734	-41.50452	555.99640	594.63464	115.65359	552.19928	593.26044	
4883	48.820	-159.68596	115.36471	-219.78775	222.80167	16.60141	-222.74213	-152.46643	13.58088	406.03488	218.95532	117.03439	402.70032	-86.59593	1208.53235	-344.48459	-52.24860	577.07318	-351.59445	107.72729	579.43036	-353.18542	-41.73784	556.19592	594.27960	115.47964	552.29840	593.11938	
4884	48.830	-160.46428	108.69200	-220.50468	222.76314	16.49396	-222.83398	-152.43587	13.53005	405.99445	220.33853	110.70272	401.69089	-86.62080	1208.71240	-344.88629	-52.22934	576.98450	-352.00116	108.04138	579.29077	-353.47192	-41.89084	556.09863	593.95087	115.16119	552.41730	592.70490	
4885	48.840	-160.52454	100.99501	-220.73553	222.86604	16.44080	-222.82411	-152.45934	13.49894	405.96368	220.84709	103.52515	401.06796	-86.29959	1208.57947	-345.37143	-51.89587	576.91040	-352.34094	108.34411	579.17853	-353.73273	-41.92475	556.29614	593.56500	114.96451	552.54211	592.50433	
4886	48.850	-160.57831	92.99162	-221.03265	222.80623	16.35586	-222.86589	-152.48181	13.47207	405.87210	222.04742	96.19362	400.95477	-86.00805	1208.50244	-346.27856	-51.52948	576.83032	-352.78690	108.79673	579.21094	-354.14505	-42.08936	556.66412	592.96692	114.58636	552.47791	592.21783	
4887	48.860	-160.38948	84.28258	-221.36316	222.73779	16.31857	-222.87790	-152.49095	13.53460	405.83960	222.20689	87.89560	400.54568	-85.68394	1208.32483	-346.83231	-50.62298	576.49274	-352.79163	108.95265	579.21198	-354.40170	-41.88513	556.77454	592.95721	114.85693	552.89178	591.84741	
4888	48.870	-160.14023	75.58782	-221.35422	222.88316	16.29080	-222.82779	-152.58148	13.75648	405.79263	222.72435	79.68233	400.68985	-85.44588	1208.26294	-347.31100	-50.39584	576.64142	-353.23111	109.26049	579.15973	-354.66339	-41.64846	556.95837	592.64484	115.01978	553.05219	591.55865	
4889	48.880	-160.01732	66.57718	-221.50375	222.94286	16.24424	-222.86015	-152.55544	13.82690	405.72507	223.15831	71.64488	400.22943	-84.97701	1208.31348	-347.98969	-50.24198	576.60608	-353.30576	109.39160	579.17828	-354.76254	-41.32521	556.78296	592.21484	115.27004	553.17468	591.15704	
4890	48.890	-159.87476	57.96989	-221.43445	222.99745	16.21858	-222.92926	-152.54037	13.76918	405.69360	223.48227	63.95728	399.71820	-84.37414	1208.35156	-348.02570	-49.89524	576.41089	-353.73401	110.04969	579.15942	-355.55820	-41.28975	556.79932	591.63965	115.19638	553.21466	590.74524	
4891	48.900	-159.75386	49.52358	-221.57735	222.94698	16.13701	-222.96896	-152.39218	13.55994	405.67621	224.57410	55.94798	399.06445	-84.38462	1208.29016	-348.28091	-49.52515	576.12634	-354.09793	109.63832	579.03320	-355.84985	-41.57131	556.99878	591.27081	115.37698	553.14722	590.55371	
4892	48.910	-159.10077	41.41329	-221.87535	222.96458	16.12701	-222.93861	-152.37177	13.49430	405.71405	224.93633	48.61596	398.34869	-85.15622	1207.93787	-349.00562	-49.83608	576.39264	-354.95334	109.99833	578.92627	-356.22852	-41.37960	556.92426	591.13666	115.32987	553.05078	590.32599	
4893	48.920	-158.75923	33.99934	-222.26668	222.97794	16.18675	-222.93739	-152.45313	13.59213	405.65714	225.83380	41.85353	397.82608	-85.07797	1207.56494	-349.41962	-49.76087	576.28589	-355.38681	110.73785	578.86731	-356.61624	-41.25879	556.82019	590.83215	115.21481	552.85278	589.89819	
4894	48.930	-158.61787	27.48330	-222.70438	223.00377	16.17923	-222.92531	-152.56300	13.73669	405.62726	225.96715	35.36433	396.90952	-84.96128	1207.38831	-349.71149	-49.72147	576.24426	-355.67038	110.97653	578.79517	-356.91241	-41.08948	556.45465	590.49786	115.46243	552.84619	589.36523	
4895	48.940	-158.48418	21.22451	-223.42145	223.05389	16.24283	-222.91757	-152.52054	13.70324	405.62158	225.92308	29.17398	395.94351	-84.77632	1207.32300	-350.08319	-49.47716	576.05310	-356.03043	111.24023	578.58862	-357.52942	-41.12677	556.63068	589.59778	115.80894	552.88177	588.99548	
